<svg id="Component_45_1" data-name="Component 45 – 1" xmlns="http://www.w3.org/2000/svg" width="18.475" height="16.105" viewBox="0 0 18.475 16.105">
  <path id="Path_1" data-name="Path 1" d="M262.387,193.239a.734.734,0,0,0-.58-.285h-2.14l-2.841-4.933a.732.732,0,1,0-1.27.731l2.42,4.2h-9.349l2.42-4.2a.733.733,0,1,0-1.27-.731l-2.841,4.933H244.8a.732.732,0,0,0-.709.918l2.442,9.339a.733.733,0,0,0,.709.547h12.127a.733.733,0,0,0,.708-.547l2.442-9.339a.731.731,0,0,0-.128-.633Zm-3.587,9.055h-11l-2.059-7.874h15.113Z" transform="translate(-244.064 -187.654)" stroke=" none"/>
</svg>
