<svg id="Component_44_1" data-name="Component 44 – 1" xmlns="http://www.w3.org/2000/svg" width="13.176" height="16.105" viewBox="0 0 13.176 16.105">
  <path id="Path_4" data-name="Path 4" d="M214.392,32.114a4.392,4.392,0,1,0-3.106-1.286A4.393,4.393,0,0,0,214.392,32.114Zm0-7.32a2.928,2.928,0,1,1-2.07.858,2.928,2.928,0,0,1,2.07-.858Z" transform="translate(-207.804 -23.33)" stroke="none" />
  <path id="Path_5" data-name="Path 5" d="M149.518,350h-5.856a3.66,3.66,0,0,0-3.66,3.66,2.2,2.2,0,0,0,2.2,2.2h8.784a2.2,2.2,0,0,0,2.2-2.2,3.66,3.66,0,0,0-3.66-3.66Zm1.464,4.392H142.2a.732.732,0,0,1-.732-.732,2.2,2.2,0,0,1,2.2-2.2h5.856a2.2,2.2,0,0,1,2.2,2.2.732.732,0,0,1-.732.732Z" transform="translate(-140.002 -339.752)" stroke="none" />
</svg>
