<svg xmlns="http://www.w3.org/2000/svg" width="15.627" height="22.728" viewBox="0 0 15.627 22.728">
  <g id="noun-location-1046848" transform="translate(-165.2 -11.199)">
    <path id="Path_129" data-name="Path 129" d="M173.013,11.2a7.9,7.9,0,0,0-7.813,7.954c0,4.385,3.32,9.058,7.037,14.369a.947.947,0,0,0,1.554,0c3.716-5.31,7.037-9.984,7.037-14.369a7.9,7.9,0,0,0-7.813-7.954Zm0,1.894a5.976,5.976,0,0,1,5.919,6.06c0,3.107-2.6,7.333-5.919,12.142-3.321-4.809-5.919-9.035-5.919-12.142A5.976,5.976,0,0,1,173.013,13.093Zm0,1.421a4.5,4.5,0,1,0,4.5,4.5,4.513,4.513,0,0,0-4.5-4.5Zm0,1.894a2.6,2.6,0,1,1-2.6,2.6A2.59,2.59,0,0,1,173.013,16.408Z" />
  </g>
</svg>
