<svg xmlns="http://www.w3.org/2000/svg" width="18.004" height="22.005" viewBox="0 0 18.004 22.005">
  <g id="noun-phone-1384969" transform="translate(-196.269 -88.086)">
    <path id="Path_130" data-name="Path 130" d="M140.605,109.091H129.936a2.675,2.675,0,0,1-2.667-2.667V91.754a2.675,2.675,0,0,1,2.667-2.667h10.669a2.675,2.675,0,0,1,2.667,2.667v14.67a2.676,2.676,0,0,1-2.668,2.667Zm0,0" transform="translate(70)" fill="none"  stroke-linecap="round" stroke-linejoin="round" stroke-miterlimit="10" stroke-width="2"/>
    <path id="Path_131" data-name="Path 131" d="M321.522,364.4a1.667,1.667,0,1,1-1.667-1.667,1.667,1.667,0,0,1,1.667,1.667" transform="translate(-114.584 -259.306)" />
    <path id="Path_132" data-name="Path 132" d="M301.281,137.91h-3.867a.867.867,0,1,1,0-1.734h3.867a.867.867,0,0,1,0,1.734Z" transform="translate(-94.077 -44.622)" />
  </g>
</svg>
